<svg xmlns="http://www.w3.org/2000/svg" width="348" height="93" viewBox="0 0 348 93" fill="none"><g clip-path="url(#clip0_31_2)"><path d="M149.05 34.4743C144.746 34.4743 140.722 35.6226 137.245 37.6508V10.2856H125.43V58.0942C125.43 66.8296 130.184 74.4704 137.245 78.5376C140.722 80.5659 144.746 81.7141 149.05 81.7141C162.099 81.7141 172.669 71.1437 172.669 58.0942C172.669 45.0448 162.088 34.4743 149.05 34.4743ZM149.05 69.8988C142.546 69.8988 137.245 64.5975 137.245 58.0942C137.245 51.591 142.546 46.2789 149.05 46.2789C155.553 46.2789 160.865 51.591 160.865 58.0942C160.865 64.5975 155.553 69.8988 149.05 69.8988Z" fill="#1A73E8"></path><path d="M323.563 34.4744C310.514 34.4744 299.943 45.0449 299.943 58.0943C299.943 71.1438 310.514 81.7142 323.563 81.7142C336.613 81.7142 347.183 71.1438 347.183 58.0943C347.183 45.0449 336.613 34.4744 323.563 34.4744ZM323.563 69.8989C317.049 69.8989 311.748 64.5976 311.748 58.0943C311.748 51.5803 317.049 46.279 323.563 46.279C330.066 46.279 335.368 51.5803 335.368 58.0943C335.368 64.5976 330.077 69.8989 323.563 69.8989Z" fill="#1A73E8"></path><path d="M218.577 34.4636H206.773V81.7141H218.577V34.4636Z" fill="#1A73E8"></path><path d="M218.577 21.9936C218.577 25.2667 215.937 27.9066 212.675 27.9066C209.423 27.9066 206.773 25.2667 206.773 21.9936C206.773 18.7419 209.423 16.0913 212.675 16.0913C215.937 16.0913 218.577 18.7419 218.577 21.9936Z" fill="#1A73E8"></path><path d="M200.216 70.5212V81.7141H193.294C188.84 81.7141 185.342 80.3298 182.895 77.5611C180.459 74.7924 179.236 70.8969 179.236 65.8531V10.2856H191.04V65.9604C191.04 67.4198 191.362 68.5466 191.996 69.33C192.629 70.1242 193.519 70.5105 194.689 70.5105H200.216V70.5212Z" fill="#1A73E8"></path><path d="M284.224 46.2791V65.9713C284.224 67.4415 284.546 68.5468 285.189 69.341C285.812 70.1244 286.703 70.5214 287.872 70.5214H293.41V81.7143H286.499C282.034 81.7143 278.536 80.3407 276.089 77.572C273.653 74.8033 272.43 70.897 272.43 65.864V22.6592H284.234V34.4745H293.41V46.2791H284.224Z" fill="#1A73E8"></path><path d="M265.829 54.8105V81.7142H254.024V54.8105C254.024 51.4838 252.082 48.4575 249.077 47.0731C247.939 46.5473 246.738 46.279 245.493 46.279C244.248 46.279 243.057 46.5473 241.93 47.0517C238.904 48.4575 236.961 51.4838 236.961 54.8105V81.7142H225.146V54.8105C225.146 46.6224 229.986 39.5611 236.961 36.3524C239.558 35.1398 242.445 34.4744 245.493 34.4744C248.54 34.4744 251.427 35.1398 254.024 36.3524C260.978 39.5611 265.829 46.6224 265.829 54.8105Z" fill="#1A73E8"></path><path d="M84.1246 41.3582C89.8058 37.1106 93.3689 30.3899 93.3689 22.9706C93.3549 10.3116 83.0164 0 70.2932 0C62.0168 0 54.5821 4.38732 50.5 11.1919C46.4179 4.38732 38.9832 0 30.7068 0C17.9836 0 7.64514 10.3116 7.64514 22.9845C7.64514 30.3899 11.2082 37.1246 16.8894 41.3721C6.80347 45.3822 0 55.1489 0 66.215C0 80.9838 12.0639 93 26.8913 93C36.9071 93 45.8708 87.4949 50.5 79.0556C55.1292 87.5089 64.0929 93 74.1088 93C88.9361 92.986 101 80.9838 101 66.215C101 55.1489 94.1965 45.3822 84.1246 41.3582ZM54.3015 18.8627C56.1812 11.5971 62.7603 6.52509 70.2932 6.52509C79.3972 6.52509 86.8039 13.9025 86.8039 22.9706C86.8039 30.4737 81.7118 37.0267 74.4174 38.899C73.0847 39.2483 71.6819 39.416 70.2792 39.416H53.7825V22.9845C53.7825 21.5873 53.9508 20.1901 54.3015 18.8627ZM14.1961 22.9845C14.1961 13.9165 21.6028 6.53906 30.7068 6.53906C38.2397 6.53906 44.8188 11.611 46.6985 18.8767C47.0492 20.204 47.2175 21.6013 47.2175 22.9985V39.444H30.7068C29.304 39.444 27.9153 39.2763 26.5826 38.927C19.2882 37.0407 14.1961 30.4877 14.1961 22.9845ZM46.5862 71.273C44.2717 80.2153 36.1776 86.4609 26.8913 86.4609C15.6831 86.4609 6.565 77.3789 6.565 66.215C6.565 56.9653 12.8354 48.9032 21.8132 46.5978C23.4544 46.1786 25.1658 45.9691 26.9053 45.9691H30.7208H47.2315V66.215C47.2175 67.9336 47.0071 69.6382 46.5862 71.273ZM74.1088 86.4609C64.8224 86.4609 56.7283 80.2153 54.4138 71.273C53.9929 69.6382 53.7825 67.9336 53.7825 66.201V45.9551H70.2932H74.1088C75.8342 45.9551 77.5456 46.1647 79.1868 46.5838C88.1646 48.8893 94.435 56.9513 94.435 66.201C94.435 77.3789 85.3169 86.4609 74.1088 86.4609Z" fill="#1A73E8"></path></g><defs><clipPath id="clip0_31_2"><rect width="348" height="93" fill="white"></rect></clipPath></defs></svg>